#!OML:ASF I:\Actors\actors\Patient Classification 1\Patient 1\Session 1\Subject1.ASF
:FULLY-SPECIFIED
:DEGREES
573
root -0.272982 17.5883 7.77679 6.64153 1.63376 -7.92321
lowerback 5.19341 1.97813 3.89646
upperback -7.922 3.19204 0.852266
thorax -11.2592 1.26033 -1.72997
lowerneck -12.2987 -6.81922 -3.63957
upperneck 26.2262 -11.6188 9.56509
head 11.3566 -4.55125 2.49869
rclavicle -1.21259e-014 1.74931e-014
rhumerus -20.0984 37.5073 -91.9043
rradius 96.2876
rwrist 1.37001
rhand -1.86535 -65.4184
rfingers 7.12502
rthumb 23.8025 -1346.04
lclavicle -1.21259e-014 1.74931e-014
lhumerus -32.8209 -28.1481 102.994
lradius 88.7482
lwrist 5.49902
lhand -38.8407 -6.64768
lfingers 7.12502
lthumb -11.8501 22.997
rfemur 0.0694274 24.1017 26.0906
rtibia 2.08453
rfoot -12.9806 -24.9254
rtoes 1.87089
lfemur 5.83929 -38.6166 -14.6271
ltibia -3.2484
lfoot -12.7018 44.8828
ltoes 3.79486
574
root -0.270639 17.5813 7.76714 6.42358 1.01975 -7.74629
lowerback 5.24332 2.15453 3.39892
upperback -7.75992 3.37856 0.910634
thorax -11.1227 1.39981 -1.41585
lowerneck -12.5386 -6.74152 -3.75705
upperneck 26.4018 -11.5666 9.79449
head 11.4932 -4.49608 2.60477
rclavicle 5.36719e-015 -2.22639e-014
rhumerus -18.3953 37.4041 -90.6429
rradius 91.8323
rwrist -1.30369
rhand -2.96869 -62.6993
rfingers 7.12502
rthumb 22.744 -1348.62
lclavicle 5.36719e-015 -2.22639e-014
lhumerus -32.363 -28.1688 102.918
lradius 88.5477
lwrist 5.62555
lhand -38.9044 -6.93594
lfingers 7.12502
lthumb -11.9114 22.7052
rfemur 0.154289 24.0695 25.8743
rtibia 2.24639
rfoot -12.8365 -24.386
rtoes 1.47511
lfemur 6.37509 -38.4022 -15.2061
ltibia -3.31513
lfoot -12.9614 45.1975
ltoes 4.1017
575
root -0.265771 17.5749 7.76964 6.33354 0.657753 -7.7573
lowerback 4.73555 2.24098 3.06502
upperback -7.44164 3.43791 1.05589
thorax -10.4788 1.48051 -1.05213
lowerneck -13.0042 -6.68031 -3.83216
upperneck 26.5583 -11.5327 9.9835
head 11.6652 -4.44171 2.67984
rclavicle 2.22639e-014 3.81667e-014
rhumerus -16.4439 37.0854 -89.3076
rradius 87.0817
rwrist -3.73026
rhand -4.38126 -59.6405
rfingers 7.12502
rthumb 21.3878 -1528.48
lclavicle 2.22639e-014 3.81667e-014
lhumerus -31.6076 -28.2201 102.7
lradius 88.3928
lwrist 5.93953
lhand -38.8141 -6.88753
lfingers 7.12502
lthumb -11.8244 22.7586
rfemur 0.281304 23.9328 25.8858
rtibia 2.1797
rfoot -12.6301 -23.9768
rtoes 0.848485
lfemur 6.6906 -38.0766 -15.4105
ltibia -3.40066
lfoot -13.0988 45.2181
ltoes 4.32581
576
root -0.260398 17.5709 7.77068 6.28259 0.425731 -7.7494
lowerback 4.7337 2.39719 3.03587
upperback -7.45947 3.63708 0.953401
thorax -10.485 1.57434 -1.1719
lowerneck -13.1298 -6.732 -3.91202
upperneck 26.7768 -11.7255 10.3441
head 11.8275 -4.47946 2.79713
rclavicle -2.94201e-014 -3.18055e-014
rhumerus -15.9661 36.2295 -88.9754
rradius 83.1513
rwrist -5.6048
rhand -6.037 -56.6955
rfingers 7.12502
rthumb 19.7968 -1525.71
lclavicle -2.94201e-014 -3.18055e-014
lhumerus -31.5412 -28.6704 102.73
lradius 88.3385
lwrist 6.14926
lhand -38.68 -6.63915
lfingers 7.12502
lthumb -11.6951 23.0144
rfemur 0.360885 23.7773 25.8578
rtibia 2.11807
rfoot -12.5222 -23.6458
rtoes 0.592357
lfemur 6.87916 -37.912 -15.582
ltibia -3.41255
lfoot -13.3551 45.265
ltoes 4.70334
577
root -0.254977 17.5692 7.76599 6.22297 0.209984 -7.69981
lowerback 4.92681 2.59328 3.00974
upperback -7.43271 3.89454 0.818576
thorax -10.5533 1.69304 -1.34479
lowerneck -13.2453 -6.80847 -3.91955
upperneck 26.6803 -11.9013 10.6111
head 11.8522 -4.52551 2.86528
rclavicle -4.11981e-014 -2.46493e-014
rhumerus -16.238 35.1971 -89.0436
rradius 80.3752
rwrist -6.90821
rhand -8.08922 -53.938
rfingers 7.12502
rthumb 17.823 -1523.14
lclavicle -4.11981e-014 -2.46493e-014
lhumerus -31.3562 -29.2182 102.769
lradius 88.2546
lwrist 5.92243
lhand -38.7343 -6.6989
lfingers 7.12502
lthumb -11.7475 22.9517
rfemur 0.410105 23.7267 25.7669
rtibia 2.09239
rfoot -12.4566 -23.4121
rtoes 0.49009
lfemur 7.07997 -37.9308 -15.8112
ltibia -3.44503
lfoot -13.4988 45.4534
ltoes 4.95181
578
root -0.245524 17.5679 7.76058 6.40431 0.104169 -7.66967
lowerback 5.00912 2.77278 3.08733
upperback -7.45325 4.13666 0.679332
thorax -10.6005 1.79626 -1.57403
lowerneck -13.485 -7.03298 -4.23486
upperneck 26.5128 -12.2584 11.0504
head 11.9274 -4.6612 3.01478
rclavicle -6.11263e-015 -1.35174e-014
rhumerus -17.6181 35.3984 -90.0737
rradius 83.9096
rwrist -6.10829
rhand -6.85558 -56.4147
rfingers 7.12502
rthumb 19.0097 -1525.51
lclavicle -6.11263e-015 -1.35174e-014
lhumerus -31.1813 -29.6582 102.804
lradius 88.2068
lwrist 5.34373
lhand -38.7351 -6.93366
lfingers 7.12502
lthumb -11.7482 22.7169
rfemur 0.144291 23.6077 25.5428
rtibia 2.0623
rfoot -12.3329 -23.1842
rtoes 0.0663567
lfemur 6.89924 -38.0731 -15.7978
ltibia -3.45866
lfoot -13.6601 45.6289
ltoes 5.49341
579
root -0.234132 17.5675 7.7516 6.8815 0.125476 -7.68702
lowerback 4.85887 2.83344 3.18834
upperback -7.5721 4.22305 0.63594
thorax -10.6297 1.82709 -1.68268
lowerneck -13.4829 -7.0748 -4.32818
upperneck 26.1672 -12.2899 11.1964
head 11.8131 -4.68108 3.07335
rclavicle 2.0773e-014 1.59028e-014
rhumerus -19.4603 35.4504 -91.753
rradius 89.8162
rwrist -3.03088
rhand -4.01565 -60.8298
rfingers 7.12502
rthumb 21.7389 -1529.63
lclavicle 2.0773e-014 1.59028e-014
lhumerus -31.176 -29.5873 102.83
lradius 88.2731
lwrist 4.75734
lhand -38.5656 -7.00393
lfingers 7.12502
lthumb -11.5847 22.6559
rfemur -0.579012 23.4202 25.1986
rtibia 2.15669
rfoot -12.2267 -22.9866
rtoes -0.178781
lfemur 6.13656 -38.2585 -15.373
ltibia -3.36457
lfoot -13.8894 45.7497
ltoes 6.17085
